<svg version="1.2" xmlns="http://www.w3.org/2000/svg" viewBox="0 0 400 400" width="400" height="400">
	<path fill="currentColor" d="m329.92 23.3v59.22c0 2.61-1.39 5.01-3.64 6.32l-245.15 141.54c-4.86 2.8-10.93-0.7-10.93-6.31v-59.23c0-2.6 1.39-5.01 3.64-6.31l245.15-141.54c4.86-2.81 10.93 0.7 10.93 6.31z"/>
	<path fill="currentColor" d="m136.07 228.49v148.22c0 4.03-3.27 7.29-7.29 7.29h-51.29c-4.03 0-7.29-3.26-7.29-7.29v-120.63c0-2.69 1.47-5.15 3.83-6.42l51.3-27.59c4.85-2.62 10.74 0.9 10.74 6.42z"/>
	<path fill="currentColor" d="m326.28 183.6l-94.91 54.81c-4.86 2.8-4.86 9.82 0 12.62l94.91 54.81c2.25 1.3 3.64 3.7 3.64 6.31v59.22c0 5.61-6.07 9.12-10.93 6.32l-160.37-92.61c-2.25-1.3-3.64-3.7-3.64-6.31v-68.1c0-2.61 1.39-5.01 3.64-6.32l160.37-92.6c4.86-2.8 10.93 0.7 10.93 6.31v59.23c0 2.6-1.39 5.01-3.64 6.31z"/>
</svg>